# xmcd
#
# Track frame offsets:
#	150
#	18456
#	41208
#	62081
#	83360
#	95513
#	107332
#	134216
#	150197
#	168914
#
# Disc length: 2531 seconds
#
# Revision: 0
# Processed by: cddbd v1.5.2PL0 Copyright (c) Steve Scherf et al.
# Submitted via: EasyCDDAExtractor 2010.4.0.0
#
DISCID=7309e10a
DTITLE=Elam McKnight and Bob Bogdal - Zombie Nation
DYEAR=2011
DGENRE=Blues
TTITLE0=Pojo's Place
TTITLE1=Blues Makes Me Happy
TTITLE2=Tomcat Kitten
TTITLE3=Zombification
TTITLE4=Red Wheel Barrow
TTITLE5=19 Days
TTITLE6=No Hard Feelings
TTITLE7=I Hate You
TTITLE8=Brother To A Stone
TTITLE9=Hocus Pocus
EXTD=
EXTT0=
EXTT1=
EXTT2=
EXTT3=
EXTT4=
EXTT5=
EXTT6=
EXTT7=
EXTT8=
EXTT9=
PLAYORDER=
